# xmcd
#
# Track frame offsets:
#	150
#	17362
#	29630
#	43802
#	61287
#	80407
#	94815
#	111037
#	126775
#	139137
#	161580
#	182255
#	197937
#	214615
#	240550
#	259802
#	276925
#	299687
#
# Disc length: 4268 seconds
#
# Revision: 1
# Processed by: cddbd v1.5PL3 Copyright (c) Steve Scherf et al.
# Submitted via: CDex 1.50Beta5
#
DISCID=0710aa12
DTITLE=Various Artist - フォーク・ポップス黄金時代09
DYEAR=1900
DGENRE=Pop -> General Pop
TTITLE0=マキシーのために
TTITLE1=僕の胸でおやすみ
TTITLE2=神田川
TTITLE3=赤ちょうちん
TTITLE4=妹
TTITLE5=２２才の別れ
TTITLE6=なごり雪
TTITLE7=ソバカスのある少女
TTITLE8=北京ダック
TTITLE9=君と歩いた青春
TTITLE10=砂の女
TTITLE11=雨の物語
TTITLE12=夏の少女
TTITLE13=ホンコン・ナイト・サイト
TTITLE14=夢一夜
TTITLE15=海岸通
TTITLE16=いつか冷たい雨が
TTITLE17=Follow Me
EXTD=
EXTT0=
EXTT1=
EXTT2=
EXTT3=
EXTT4=
EXTT5=
EXTT6=
EXTT7=
EXTT8=
EXTT9=
EXTT10=
EXTT11=
EXTT12=
EXTT13=
EXTT14=
EXTT15=
EXTT16=
EXTT17=
PLAYORDER=
